HIERARCHY
ROOT Hips
{
  OFFSET 5.84602e-005 68.8428 3.50346
  CHANNELS 6 Xposition Yposition Zposition Zrotation Xrotation Yrotation
  JOINT Spine
  {
    OFFSET 0 8.597 -4.6522
    CHANNELS 3 Zrotation Xrotation Yrotation
    JOINT Spine1
    {
      OFFSET 0 7.8454 0.4098
      CHANNELS 3 Zrotation Xrotation Yrotation
      JOINT Spine2
      {
        OFFSET 0 9.7078 -2.1609
        CHANNELS 3 Zrotation Xrotation Yrotation
        JOINT Neck
        {
          OFFSET 0 21.8761 -0.4549
          CHANNELS 3 Zrotation Xrotation Yrotation
          JOINT Head
          {
            OFFSET 0 12.3537 3.3602
            CHANNELS 3 Zrotation Xrotation Yrotation
            End Site
            {
              OFFSET 0.0001 18.9506 0.5657
            }
          }
        }
        JOINT LeftShoulder
        {
          OFFSET 2.2086 21.1115 7.2329
          CHANNELS 3 Zrotation Xrotation Yrotation
          JOINT LeftArm
          {
            OFFSET 13.1193 3.0282 -4.8998
            CHANNELS 3 Zrotation Xrotation Yrotation
            JOINT LeftForeArm
            {
              OFFSET 27.4081 -0.0973053 -0.2375
              CHANNELS 3 Zrotation Xrotation Yrotation
              JOINT LeftHand
              {
                OFFSET 22.8641 0.0662994 -0.1369
                CHANNELS 3 Zrotation Xrotation Yrotation
                JOINT LeftHandIndex1
                {
                  OFFSET 8.8614 0.775009 2.4612
                  CHANNELS 3 Zrotation Xrotation Yrotation
                  JOINT LeftHandIndex2
                  {
                    OFFSET 3.3146 -0.808304 0.5841
                    CHANNELS 3 Zrotation Xrotation Yrotation
                    JOINT LeftHandIndex3
                    {
                      OFFSET 2.2628 -0.552002 0.3989
                      CHANNELS 3 Zrotation Xrotation Yrotation
                      End Site
                      {
                        OFFSET 1.6102 -0.4807 0.2612
                      }
                    }
                  }
                }
                JOINT LeftHandMiddle1
                {
                  OFFSET 8.9937 0.895004 0.2143
                  CHANNELS 3 Zrotation Xrotation Yrotation
                  JOINT LeftHandMiddle2
                  {
                    OFFSET 4.0984 0.0113983 -0.0242
                    CHANNELS 3 Zrotation Xrotation Yrotation
                    JOINT LeftHandMiddle3
                    {
                      OFFSET 2.2716 0.00689697 -0.0138001
                      CHANNELS 3 Zrotation Xrotation Yrotation
                      End Site
                      {
                        OFFSET 2.0404 -0.1441 0.0027
                      }
                    }
                  }
                }
                JOINT LeftHandRing1
                {
                  OFFSET 8.5234 0.597198 -2.0164
                  CHANNELS 3 Zrotation Xrotation Yrotation
                  JOINT LeftHandRing2
                  {
                    OFFSET 3.7188 -0.188293 -0.2328
                    CHANNELS 3 Zrotation Xrotation Yrotation
                    JOINT LeftHandRing3
                    {
                      OFFSET 2.1191 -0.106598 -0.1332
                      CHANNELS 3 Zrotation Xrotation Yrotation
                      End Site
                      {
                        OFFSET 1.8737 -0.2304 -0.0886
                      }
                    }
                  }
                }
                JOINT LeftHandPinky1
                {
                  OFFSET 7.9094 -0.601089 -3.4825
                  CHANNELS 3 Zrotation Xrotation Yrotation
                  JOINT LeftHandPinky2
                  {
                    OFFSET 2.2874 -0.477005 -0.6314
                    CHANNELS 3 Zrotation Xrotation Yrotation
                    JOINT LeftHandPinky3
                    {
                      OFFSET 1.6774 -0.349396 -0.4633
                      CHANNELS 3 Zrotation Xrotation Yrotation
                      End Site
                      {
                        OFFSET 1.4888 -0.4091 -0.3416
                      }
                    }
                  }
                }
                JOINT LeftHandThumb1
                {
                  OFFSET 1.833 -1.3875 1.3896
                  CHANNELS 3 Zrotation Xrotation Yrotation
                  JOINT LeftHandThumb2
                  {
                    OFFSET 3.4129 -1.121 2.5732
                    CHANNELS 3 Zrotation Xrotation Yrotation
                    JOINT LeftHandThumb3
                    {
                      OFFSET 2.2474 -0.804199 1.6192
                      CHANNELS 3 Zrotation Xrotation Yrotation
                      End Site
                      {
                        OFFSET 1.6527 -0.5689 1.1317
                      }
                    }
                  }
                }
              }
            }
          }
        }
        JOINT RightShoulder
        {
          OFFSET -2.2086 21.1115 7.2329
          CHANNELS 3 Zrotation Xrotation Yrotation
          JOINT RightArm
          {
            OFFSET -13.1216 3.0287 -4.9007
            CHANNELS 3 Zrotation Xrotation Yrotation
            JOINT RightForeArm
            {
              OFFSET -27.4081 -0.0973053 -0.2375
              CHANNELS 3 Zrotation Xrotation Yrotation
              JOINT RightHand
              {
                OFFSET -22.8641 0.0664063 -0.1369
                CHANNELS 3 Zrotation Xrotation Yrotation
                JOINT RightHandIndex1
                {
                  OFFSET -8.8614 0.774994 2.4612
                  CHANNELS 3 Zrotation Xrotation Yrotation
                  JOINT RightHandIndex2
                  {
                    OFFSET -3.3146 -0.808304 0.5841
                    CHANNELS 3 Zrotation Xrotation Yrotation
                    JOINT RightHandIndex3
                    {
                      OFFSET -2.2628 -0.552002 0.3989
                      CHANNELS 3 Zrotation Xrotation Yrotation
                      End Site
                      {
                        OFFSET -1.6102 -0.4807 0.2612
                      }
                    }
                  }
                }
                JOINT RightHandMiddle1
                {
                  OFFSET -8.9937 0.894989 0.2143
                  CHANNELS 3 Zrotation Xrotation Yrotation
                  JOINT RightHandMiddle2
                  {
                    OFFSET -4.0984 0.0113983 -0.0242
                    CHANNELS 3 Zrotation Xrotation Yrotation
                    JOINT RightHandMiddle3
                    {
                      OFFSET -2.2716 0.00691223 -0.0138001
                      CHANNELS 3 Zrotation Xrotation Yrotation
                      End Site
                      {
                        OFFSET -2.0404 -0.1441 0.0027
                      }
                    }
                  }
                }
                JOINT RightHandRing1
                {
                  OFFSET -8.5234 0.597198 -2.0164
                  CHANNELS 3 Zrotation Xrotation Yrotation
                  JOINT RightHandRing2
                  {
                    OFFSET -3.7188 -0.188309 -0.2328
                    CHANNELS 3 Zrotation Xrotation Yrotation
                    JOINT RightHandRing3
                    {
                      OFFSET -2.1191 -0.106598 -0.1332
                      CHANNELS 3 Zrotation Xrotation Yrotation
                      End Site
                      {
                        OFFSET -1.8737 -0.2304 -0.0886
                      }
                    }
                  }
                }
                JOINT RightHandPinky1
                {
                  OFFSET -7.9094 -0.601105 -3.4825
                  CHANNELS 3 Zrotation Xrotation Yrotation
                  JOINT RightHandPinky2
                  {
                    OFFSET -2.2874 -0.477005 -0.6314
                    CHANNELS 3 Zrotation Xrotation Yrotation
                    JOINT RightHandPinky3
                    {
                      OFFSET -1.6774 -0.349396 -0.4633
                      CHANNELS 3 Zrotation Xrotation Yrotation
                      End Site
                      {
                        OFFSET -1.4888 -0.4091 -0.3416
                      }
                    }
                  }
                }
                JOINT RightHandThumb1
                {
                  OFFSET -1.833 -1.38751 1.3896
                  CHANNELS 3 Zrotation Xrotation Yrotation
                  JOINT RightHandThumb2
                  {
                    OFFSET -3.41299 -1.12099 2.5732
                    CHANNELS 3 Zrotation Xrotation Yrotation
                    JOINT RightHandThumb3
                    {
                      OFFSET -2.24741 -0.804108 1.6192
                      CHANNELS 3 Zrotation Xrotation Yrotation
                      End Site
                      {
                        OFFSET -1.6527 -0.5689 1.1317
                      }
                    }
                  }
                }
              }
            }
          }
        }
      }
    }
  }
  JOINT RightUpLeg
  {
    OFFSET -9.1966 3.8861 -0.7581
    CHANNELS 3 Zrotation Xrotation Yrotation
    JOINT RightLeg
    {
      OFFSET -0.7359 -41.0265 0
      CHANNELS 3 Zrotation Xrotation Yrotation
      JOINT RightFoot
      {
        OFFSET 0 -40.2855 0
        CHANNELS 3 Zrotation Xrotation Yrotation
        JOINT RightToeBase
        {
          OFFSET 0 -5.6122 11.7359
          CHANNELS 3 Zrotation Xrotation Yrotation
          End Site
          {
            OFFSET 0 0 7.8731
          }
        }
      }
    }
  }
  JOINT LeftUpLeg
  {
    OFFSET 9.1965 3.8864 -0.7581
    CHANNELS 3 Zrotation Xrotation Yrotation
    JOINT LeftLeg
    {
      OFFSET 0.7359 -41.0268 0
      CHANNELS 3 Zrotation Xrotation Yrotation
      JOINT LeftFoot
      {
        OFFSET 0 -40.2855 0
        CHANNELS 3 Zrotation Xrotation Yrotation
        JOINT LeftToeBase
        {
          OFFSET 0 -5.6122 11.7359
          CHANNELS 3 Zrotation Xrotation Yrotation
          End Site
          {
            OFFSET 0 0 7.8731
          }
        }
      }
    }
  }
}
MOTION
Frames:	4
Frame Time:	0.0333333
3.27592 29.318 -5.67924 -9.29611e-015 -17.9965 180 -0.237503 8.03008 -0.162183 -0.458652 16.0608 -0.294772 -0.458651 16.0608 -0.294772 -9.97622e-006 -7.50694 4.69843e-007 8.9576e-008 -8.44536 -1.72564e-007 12.5509 -26.0212 7.42952 -75.5321 6.83502 -23.0736 -17.3192 10.6362 -55.5471 -1.84628 -4.30749 0.741371 1.41245e-030 -6.36111e-015 1.27222e-014 1.59028e-015 -3.18055e-015 1.27222e-014 4.77083e-015 0 1.27222e-014 1.41245e-030 -6.36111e-015 1.27222e-014 -0.0146189 -9.07575e-005 7.21539e-006 -3.18055e-015 9.54166e-015 -0 1.41245e-030 -6.36111e-015 1.27222e-014 -0.0187855 -0.00118418 5.88693e-005 -7.95139e-015 6.36111e-015 9.54166e-015 1.41245e-030 -6.36111e-015 1.27222e-014 -0.0122725 -0.00324943 0.000677644 4.77083e-015 -3.18055e-015 -6.36111e-015 1.41245e-030 -6.36111e-015 1.27222e-014 1.59028e-015 -3.18055e-015 1.27222e-014 4.77083e-015 0 1.27222e-014 -3.96245 -28.6352 4.36826 69.7513 3.25919 7.99793 16.8479 16.5766 64.5615 -4.11879 -3.2951 -7.36825 1.22848e-006 3.36029e-007 -5.98143e-007 -1.76556e-031 3.18055e-015 3.18055e-015 2.80564e-007 5.10565e-007 -6.21668e-007 1.22848e-006 3.36029e-007 -5.98143e-007 0.0150215 -9.44798e-005 -1.83811e-006 2.80571e-007 5.10483e-007 -6.21735e-007 1.22848e-006 3.36029e-007 -5.98143e-007 0.0190046 -0.00118774 -6.23323e-005 2.80566e-007 5.10461e-007 -6.21756e-007 1.22848e-006 3.36029e-007 -5.98143e-007 0.0122196 -0.00323659 -0.000673432 2.80549e-007 5.10499e-007 -6.21731e-007 1.22848e-006 3.36029e-007 -5.98143e-007 -1.76556e-031 3.18055e-015 3.18055e-015 2.80564e-007 5.10565e-007 -6.21668e-007 -26.9494 -16.2437 -12.2053 -142.087 81.8571 132.265 6.97359 32.2475 -3.7216 1.42126e-006 1.0584e-006 2.88824e-006 107.146 -46.6168 119.269 18.9544 75.2873 -7.4892 -17.0729 18.7676 14.4772 -6.82731e-008 -1.12251e-007 -2.31188e-008 
3.27303 29.3181 -6.1762 -9.29611e-015 -17.9965 180 -0.237756 7.92356 -0.162097 -0.459318 15.8477 -0.294918 -0.459318 15.8477 -0.294918 -1.7621e-005 -7.01174 2.5272e-006 2.77629e-007 -7.88846 -9.96007e-008 12.2616 -24.7185 7.29531 -75.5321 6.83501 -23.0736 -17.3191 10.6362 -55.5471 -1.74521 -3.80366 0.0738429 4.77083e-015 2.54444e-014 -0 6.36111e-015 2.54444e-014 -3.18055e-015 4.77083e-015 2.8625e-014 -0 4.77083e-015 2.54444e-014 -0 -0.014602 -8.97849e-005 3.03958e-006 -3.18055e-015 3.18055e-015 -0 4.77083e-015 2.54444e-014 -0 -0.0187769 -0.00117855 6.31226e-005 -1.59028e-015 0 6.36111e-015 4.77083e-015 2.54444e-014 -0 -0.0122526 -0.00323963 0.000674584 1.59028e-015 0 9.54166e-015 4.77083e-015 2.54444e-014 -0 6.36111e-015 2.54444e-014 -3.18055e-015 4.77083e-015 2.8625e-014 -0 -3.69699 -27.364 4.40861 69.7513 3.25919 7.99792 16.8479 16.5766 64.5615 -4.10589 -2.77289 -6.50522 -1.76556e-031 3.18055e-015 3.18055e-015 -1.59028e-015 0 6.36111e-015 1.59028e-015 3.18055e-015 -3.18055e-015 -1.76556e-031 3.18055e-015 3.18055e-015 0.0149837 -8.67089e-005 4.62505e-006 1.59028e-014 -6.36111e-015 -0 -1.76556e-031 3.18055e-015 3.18055e-015 0.0189854 -0.00119092 -5.82136e-005 -1.59028e-015 3.18055e-015 3.18055e-015 -1.76556e-031 3.18055e-015 3.18055e-015 0.0122962 -0.0032559 -0.000682613 9.56769e-007 -1.71573e-007 4.61907e-008 -1.76556e-031 3.18055e-015 3.18055e-015 -1.59028e-015 0 6.36111e-015 1.59028e-015 3.18055e-015 -3.18055e-015 -26.9581 -15.7629 -11.9174 -139.315 82.2874 129.829 7.01951 32.3318 -3.40963 3.5624e-007 2.61371e-007 7.22966e-007 107.104 -46.4068 119.073 20.0456 75.8233 -8.54316 -17.3454 18.3743 14.1527 2.51075e-006 7.74437e-007 -1.97297e-006 
3.27011 29.3181 -6.67315 -9.29611e-015 -17.9965 180 -0.238 7.81691 -0.162005 -0.459966 15.6345 -0.295056 -0.459966 15.6345 -0.295056 -9.33452e-006 -6.51668 2.20299e-006 1.47425e-007 -7.33141 1.93338e-007 11.9781 -23.4133 7.16945 -75.5321 6.835 -23.0736 -17.3192 10.6362 -55.5471 -1.63829 -3.30071 -0.594629 4.77083e-015 3.18055e-015 -3.18055e-015 4.77083e-015 0 -0 3.18055e-015 0 -0 4.77083e-015 3.18055e-015 -3.18055e-015 -0.0146058 -8.90511e-005 -1.20119e-006 -9.54166e-015 6.36111e-015 -0 4.77083e-015 3.18055e-015 -3.18055e-015 -0.0187494 -0.00117473 5.83937e-005 3.18055e-015 -6.36111e-015 -9.54166e-015 4.77083e-015 3.18055e-015 -3.18055e-015 -0.0122932 -0.00325424 0.000669923 -1.59028e-015 6.36111e-015 -0 4.77083e-015 3.18055e-015 -3.18055e-015 4.77083e-015 0 -0 3.18055e-015 0 -0 -3.4351 -26.091 4.442 69.7513 3.2592 7.99793 16.8479 16.5766 64.5615 -4.10084 -2.25012 -5.64191 -9.63522e-007 1.68276e-007 -6.91043e-008 2.83489e-007 5.08404e-007 -6.21956e-007 -3.18055e-015 0 1.27222e-014 -9.63522e-007 1.68276e-007 -6.91043e-008 0.0149854 -9.04781e-005 -1.40709e-006 -7.95139e-015 -6.36111e-015 -3.18055e-015 -9.63522e-007 1.68276e-007 -6.91043e-008 0.0190139 -0.0011939 -5.92768e-005 3.18055e-015 -3.18055e-015 -0 -9.63522e-007 1.68276e-007 -6.91043e-008 0.0123034 -0.00326112 -0.000679001 9.64624e-007 -1.68554e-007 6.90343e-008 -9.63522e-007 1.68276e-007 -6.91043e-008 2.83489e-007 5.08404e-007 -6.21956e-007 -3.18055e-015 0 1.27222e-014 -26.9689 -15.282 -11.6304 -136.24 82.7002 127.088 7.06498 32.4166 -3.09752 -7.57669e-006 -2.12039e-006 -7.62282e-007 107.063 -46.1967 118.879 21.2209 76.3541 -9.68095 -17.6195 17.9822 13.827 5.0447e-007 1.4825e-007 -7.13589e-006 
3.26716 29.3179 -7.17009 -9.29611e-015 -17.9965 180 -0.238234 7.71027 -0.161907 -0.460596 15.4211 -0.295185 -0.460597 15.4211 -0.295185 -5.71672e-006 -6.02142 1.16068e-006 -3.78476e-007 -6.77425 -2.27937e-007 11.7 -22.1059 7.05162 -75.5321 6.83502 -23.0736 -17.3191 10.6362 -55.5471 -1.52547 -2.79884 -1.26406 -6.36111e-015 -3.18055e-015 -0 -4.77083e-015 3.18055e-015 -0 -1.59028e-015 -9.54166e-015 3.18055e-015 -6.36111e-015 -3.18055e-015 -0 -0.0146114 -8.53439e-005 -1.62232e-006 1.59028e-015 -9.54166e-015 6.36111e-015 -6.36111e-015 -3.18055e-015 -0 -0.0187311 -0.00117722 5.84926e-005 -7.95139e-015 -3.18055e-015 3.18055e-015 -6.36111e-015 -3.18055e-015 -0 -0.0122548 -0.00324265 0.000673953 -1.59028e-015 0 -0 -6.36111e-015 -3.18055e-015 -0 -4.77083e-015 3.18055e-015 -0 -1.59028e-015 -9.54166e-015 3.18055e-015 -3.1765 -24.8162 4.46865 69.7513 3.25919 7.99793 16.8479 16.5766 64.5615 -4.10365 -1.72696 -4.7783 -5.69879e-007 -1.01461e-006 1.24422e-006 -2.84939e-007 -5.07303e-007 6.2211e-007 1.59028e-015 9.54166e-015 -3.18055e-015 -5.69879e-007 -1.01461e-006 1.24422e-006 0.0149981 -8.93762e-005 -3.77467e-007 -0 -3.18055e-015 -0 -5.69879e-007 -1.01461e-006 1.24422e-006 0.0189871 -0.00118823 -5.55245e-005 -1.76556e-030 -6.36111e-015 -1.59028e-014 -5.69879e-007 -1.01461e-006 1.24422e-006 0.012323 -0.0032612 -0.000678576 1.76556e-031 3.18055e-015 -3.18055e-015 -5.69879e-007 -1.01461e-006 1.24422e-006 -2.84939e-007 -5.07303e-007 6.2211e-007 1.59028e-015 9.54166e-015 -3.18055e-015 -26.9818 -14.8011 -11.3443 -132.821 83.0924 124.004 7.11009 32.5019 -2.78531 -3.58006e-007 -2.54858e-007 -7.24791e-007 107.025 -45.9864 118.687 22.4892 76.8789 -10.9116 -17.8952 17.5915 13.5001 -1.62822e-006 5.5916e-007 -6.83694e-008 
